# xmcd CD database file
#
# Track frame offsets:
#	150
#	18757
#	33516
#	51484
#	66767
#	82253
#	98574
#	113867
#	130365
#	145865
#	163974
#	181590
#	208932
#	226201
#	244646
#	260378
#	277606
#	293885
#	317209
#
# Disc length: 4444 seconds
#
# Revision: 0
# Processed by: cddbd v1.5.1PL2 Copyright (c) Steve Scherf et al.
# Submitted via: CDex 1.51
#
DISCID=10115a13
DTITLE=Various Artist - Toque Cool  (compilation EMI cd1)
DYEAR=2003
DGENRE=Pop Rock
TTITLE0=Shaye  -  on and on
TTITLE1=The Thrills  -  one horse town
TTITLE2=David Usher  -   surfacing
TTITLE3=Fountains of Wayne  -  Mexican wine
TTITLE4=Liz Phair  -  extraordinary
TTITLE5=Joss Stone  -  the chokin' kind
TTITLE6=Stacie Orrico  -  (there's gotta be ) more to life
TTITLE7=Jesse Cook  -  down like the rain
TTITLE8=Sarah Brightman  -  beautiful (remix )
TTITLE9=Pet Shop Boys  -  west end girls
TTITLE10=Enigma  -  voyageur
TTITLE11=Meat Loaf  -  did i say that
TTITLE12=Norah Jones  -  peace
TTITLE13=Steve Miller  -  fly like an eagle
TTITLE14=Van Morrison  -  once in a blue moon
TTITLE15=Bonnie Raitt  -  something to talk about
TTITLE16=Shelby Lynne  -  if were smart
TTITLE17=Cassandra Wilson -  lay lady lay
TTITLE18=Dierks Bentley  -  my last name
EXTD=YEAR: 2003
EXTT0=
EXTT1=
EXTT2=
EXTT3=
EXTT4=
EXTT5=
EXTT6=
EXTT7=
EXTT8=
EXTT9=
EXTT10=
EXTT11=
EXTT12=
EXTT13=
EXTT14=
EXTT15=
EXTT16=
EXTT17=
EXTT18=
PLAYORDER=
